<svg id="Слой_1" data-name="Слой 1" xmlns="http://www.w3.org/2000/svg" viewBox="0 0 24 24"><defs><style>.cls-1{fill:#27694e;}.cls-2{fill:none;stroke:#f8f6f1;stroke-linecap:round;stroke-linejoin:round;stroke-width:2px;}</style></defs><rect class="cls-1" width="24" height="24"/><path class="cls-2" d="M12,9.16v8"/><path class="cls-2" d="M6.88,15.41a.56.56,0,0,1-.4-.17.58.58,0,0,1-.16-.4V7.45a.59.59,0,0,1,.16-.4.56.56,0,0,1,.4-.17H9.73a2.24,2.24,0,0,1,1.6.67A2.26,2.26,0,0,1,12,9.16a2.26,2.26,0,0,1,.67-1.61,2.24,2.24,0,0,1,1.6-.67h2.85a.56.56,0,0,1,.4.17.59.59,0,0,1,.16.4v7.39a.58.58,0,0,1-.16.4.56.56,0,0,1-.4.17H13.71A1.71,1.71,0,0,0,12,17.12a1.71,1.71,0,0,0-1.71-1.71Z"/></svg>