<svg xmlns="http://www.w3.org/2000/svg" viewBox="0 0 56.69 85.04"><rect width="56.69" height="85.04" style="fill:#c4b8a8"/><path d="M28.35,39.68v8" transform="translate(0 0)" style="fill:none;stroke:#f8f6f1;stroke-linecap:round;stroke-linejoin:round;stroke-width:2px"/><path d="M23.23,45.93a.56.56,0,0,1-.4-.17.54.54,0,0,1-.17-.4V38a.58.58,0,0,1,.57-.57h2.84a2.29,2.29,0,0,1,2.28,2.28,2.27,2.27,0,0,1,2.27-2.28h2.84a.54.54,0,0,1,.4.17A.56.56,0,0,1,34,38v7.39a.58.58,0,0,1-.57.57H30.05a1.71,1.71,0,0,0-1.7,1.71,1.7,1.7,0,0,0-.5-1.21,1.72,1.72,0,0,0-1.21-.5Z" transform="translate(0 0)" style="fill:none;stroke:#f8f6f1;stroke-linecap:round;stroke-linejoin:round;stroke-width:2px"/></svg>